<svg width="733" height="533" viewBox="0 0 733 533" fill="none" xmlns="http://www.w3.org/2000/svg">
<g opacity="0.3">
<path d="M256.953 665.696C21.4453 665.696 -8.24022 510.903 2.27894 432.877C18.1963 314.819 148.717 252.521 167.817 216.453C186.918 180.367 167.817 127.905 167.817 127.905C167.817 127.905 304.705 219.732 244.22 314.819C183.736 409.925 291.972 524.704 314.255 455.829C336.54 386.973 317.439 334.493 317.439 334.493C317.439 334.493 397.024 357.445 409.758 478.781C422.491 600.118 288.786 665.696 256.953 665.696Z" fill="#FC0001"/>
<path d="M432.048 104.927C312.353 174.287 355.646 259.055 422.496 324.649C504.972 405.555 537.101 534.523 358.829 590.269C221.21 633.31 279.243 672.257 279.243 672.257C279.243 672.257 592.411 741.172 702.639 544.351C798.144 373.83 623.053 193.48 623.053 193.48C623.053 193.48 645.337 324.649 549.836 314.821C467.599 306.344 465.694 227.388 502.084 157.41C549.836 65.5941 460.699 0 460.699 0C460.699 0 482.983 75.4226 432.048 104.927Z" fill="#FC0001"/>
<path d="M206.021 252.517C-51.8386 370.569 -26.372 613.227 123.25 668.976C272.872 724.726 390.657 632.905 393.842 544.371C397.024 455.836 368.373 400.087 368.373 400.087C368.373 400.087 323.805 550.924 234.67 475.514C145.534 400.087 206.021 252.517 206.021 252.517Z" fill="#FB6D01"/>
<path d="M480.584 334.503C362.799 288.602 367.665 179.696 395.428 151.685C433.63 113.15 453.123 119.809 471.035 100.044C493.317 75.4386 480.584 28.7153 480.584 28.7153C480.584 28.7153 537.888 93.4813 490.136 144.318C448.956 188.133 439.201 275.477 480.584 334.503Z" fill="#FB6D01"/>
<path d="M641.625 227.361C807.163 396.241 716.966 613.222 597.589 654.211C478.209 695.199 459.108 693.569 412.949 667.324C366.788 641.098 425.683 531.245 510.043 511.557C594.404 491.887 553.02 472.217 513.228 426.302C473.432 380.387 488.289 291.853 488.289 291.853C488.289 291.853 549.305 361.272 606.609 334.49C661.249 308.944 641.625 227.361 641.625 227.361Z" fill="#FB6D01"/>
<path d="M525.947 355.824C495.705 457.487 651.693 477.165 631 555.861C610.307 634.557 459.096 654.235 459.096 654.235C459.096 654.235 644.395 691.502 701.035 568.98C748.786 465.673 661.241 416.486 600.757 411.571C529.196 405.748 525.947 355.824 525.947 355.824Z" fill="#EFA204"/>
<path d="M661.252 261.256C769.489 399.527 698.761 488.538 653.824 444.343C608.886 400.165 690.432 338.864 661.252 261.256Z" fill="#EFA204"/>
<path d="M155.081 301.713C-18.4143 431.237 -5.15038 564.061 80.8017 636.199C166.754 708.337 312.66 706.696 347.678 619.805C382.695 532.898 326.985 518.145 221.932 495.187C116.881 472.23 155.081 301.713 155.081 301.713Z" fill="#EFA204"/>
<path d="M449.546 385.337C533.905 452.559 562.555 526.339 530.723 591.935C498.888 657.513 358.819 683.745 381.102 606.677C403.387 529.627 471.829 514.867 471.829 457.473C471.829 400.096 449.546 385.337 449.546 385.337Z" fill="#EFA204"/>
<path d="M108.928 362.359C-7.26584 495.171 48.975 643.822 122.194 663.506C195.412 683.189 304.71 641.106 312.668 595.195C320.628 549.284 307.894 526.32 307.894 526.32C307.894 526.32 325.404 549.284 264.918 582.072C204.432 614.861 191.699 606.66 191.699 606.66C191.699 606.66 223.532 560.749 151.906 482.049C80.278 403.349 108.928 362.359 108.928 362.359Z" fill="#FACF67"/>
<path d="M350.868 404.994C400.211 475.49 371.561 547.651 371.561 547.651C371.561 547.651 371.561 519.773 347.684 491.894C323.809 464.015 350.868 404.994 350.868 404.994Z" fill="#FACF67"/>
<path d="M643.742 600.113C721.163 536.315 697.861 470.587 637.374 441.063C576.891 411.556 572.114 419.746 572.114 419.746C572.114 419.746 619.806 473.037 632.599 498.449C654.884 542.727 640.557 600.113 584.849 629.62C529.137 659.144 603.949 632.91 643.742 600.113Z" fill="#FACF67"/>
<path d="M463.878 121.344C403.393 159.049 366.783 183.648 381.108 242.684C399.421 318.132 463.878 314.828 463.878 314.828C463.878 314.828 422.494 273.836 427.268 223.006C432.043 172.175 463.878 121.344 463.878 121.344Z" fill="#FACF67"/>
<path d="M557.785 272.197C607.128 223.014 570.33 202.537 562.56 163.975C556.725 135.006 576.885 104.954 576.885 104.954C576.885 104.954 525.375 157.441 546.643 191.301C581.662 247.055 557.785 272.197 557.785 272.197Z" fill="#FC0001"/>
<path d="M244.218 155.239C256.952 194.597 256.327 214.918 227.24 250.329C168.876 321.389 214.506 369.484 213.445 366.198C212.384 362.931 207.724 296.497 244.218 266.74C295.152 225.198 244.218 155.239 244.218 155.239Z" fill="#FCE8B3"/>
<path d="M276.059 372.745C255.897 416.476 273.936 439.423 273.936 439.423L276.059 372.745Z" fill="#FC0001"/>
<path d="M86.1096 435.064C44.7266 555.307 45.7847 619.788 109.453 649.308C173.122 678.828 190.684 562.146 151.901 533.442C76.5592 477.697 86.1096 435.064 86.1096 435.064Z" fill="#FCE8B3"/>
<path d="M490.411 673.339C367.319 697.383 357.768 660.231 343.973 632.901C330.179 605.572 403.077 535.042 484.044 559.658C613.504 599.017 574.243 483.145 574.243 483.145C574.243 483.145 638.971 504.999 612.444 590.273C588.247 668.027 514.391 668.665 490.411 673.339Z" fill="#FCE8B3"/>
<path d="M451.137 426.325C414.528 477.158 419.305 511.58 435.221 549.292C451.137 587.004 419.305 618.154 424.078 618.154C428.855 618.154 486.155 567.338 460.687 509.945C435.221 452.568 451.137 426.325 451.137 426.325Z" fill="#FB6D01"/>
<path d="M682.478 344.322C730.23 394.606 739.781 442.706 700.519 515.931C705.825 482.053 672.929 456.911 672.929 456.911C672.929 456.911 703.915 429.602 702.641 403.342C701.579 381.485 682.478 344.322 682.478 344.322Z" fill="#FCE8B3"/>
<path d="M662.838 439.99C683.53 384.782 644.799 364.557 615.087 344.879C585.374 325.218 587.497 273.29 587.497 273.29C587.497 273.29 549.828 311.006 572.111 366.197C588.439 406.646 662.838 439.99 662.838 439.99Z" fill="#FACF67"/>
</g>
</svg>
